<svg width="368" height="48" fill="none" xmlns="http://www.w3.org/2000/svg"><path d="M59.306 1.3h-7.107c0 7.138-2.745 11.498-10.246 14.95V1.3h-7.151v17.58a118.62 118.62 0 0 1-5.763 1.576h-.005c-1.566.381-3.075.78-4.532 1.197V1.3H17.35v22.767C6.338 28.481 0 35.05 0 46.74h7.107c0-7.138 2.744-11.497 10.243-14.949v14.95h7.152V29.16a119.11 119.11 0 0 1 5.764-1.578h.006a115.65 115.65 0 0 0 4.53-1.195V46.74h7.151V23.973C52.967 19.56 59.306 12.992 59.306 1.3zm26.644-.01v45.452h8.831V27.517h22.712v19.225h8.768V1.297h-8.768V18.22H94.781V1.289H85.95m85.907.011v23.715c0 6.89-.704 14.2-11.914 14.2-11.212 0-12.008-7.152-12.008-14.2V1.3h-8.787v24.278c0 10.842 3.007 22.421 20.795 22.421 17.787 0 20.778-11.747 20.778-22.42V1.3h-8.864m73.428-.003v45.428h30.432v-9.192h-21.606V1.297h-8.826zm57.334 37.709c-8.583 0-15.307-6.645-15.307-15.128 0-8.481 6.724-15.126 15.307-15.126 8.582 0 15.308 6.645 15.308 15.126 0 8.483-6.726 15.128-15.308 15.128zM302.62 0c-13.548 0-24.167 10.492-24.167 23.882 0 13.387 10.619 23.873 24.167 23.873 13.549 0 24.164-10.486 24.164-23.873C326.784 10.492 316.169 0 302.62 0zm27.759 1.297v9.244h14.173v36.193h8.84V10.541h13.826V1.297h-36.839zM216.582 38.442h-15.327l-.003-11.412h15.382c4.556 0 6.532 1.79 6.532 5.867 0 3.055-1.239 5.545-6.584 5.545zm-1.364-28.82c4.917 0 6.432 1.8 6.432 4.79 0 2.992-1.315 5.122-6.248 5.122l-14.15.005V9.623h13.966zm11.679 13.286c2.729-2.147 4.286-5.273 4.286-9.06 0-3.775-1.515-12.551-15.528-12.551h-23.173v45.437h24.643c9.921 0 15.617-5.046 15.617-13.825 0-4.276-2.025-7.7-5.845-10z" fill="#171717"/></svg>